<svg xmlns="http://www.w3.org/2000/svg" xmlns:xlink="http://www.w3.org/1999/xlink" width="500" zoomAndPan="magnify" viewBox="0 0 375 374.999991" height="500" preserveAspectRatio="xMidYMid meet" version="1.0"><defs><clipPath id="d8e8c85a44"><path d="M 19.425781 10.8125 L 355.425781 10.8125 L 355.425781 364.0625 L 19.425781 364.0625 Z M 19.425781 10.8125 " clip-rule="nonzero"/></clipPath></defs><path fill="#56be89" d="M 187.503906 98.273438 C 150.371094 98.273438 120.269531 129.886719 120.269531 168.886719 C 120.269531 207.890625 150.371094 239.503906 187.503906 239.503906 C 224.636719 239.503906 254.734375 207.890625 254.734375 168.886719 C 254.734375 129.886719 224.636719 98.273438 187.503906 98.273438 " fill-opacity="1" fill-rule="nonzero"/><g clip-path="url(#d8e8c85a44)"><path fill="#56be89" d="M 299.164062 309.371094 C 284.273438 273.023438 253.015625 250.289062 187.402344 250.289062 C 121.875 250.289062 90.617188 272.964844 75.703125 309.226562 C 45.351562 278.464844 26.472656 235.296875 26.472656 187.496094 C 26.472656 94.078125 98.566406 18.351562 187.503906 18.351562 C 276.441406 18.351562 348.539062 94.078125 348.539062 187.496094 C 348.539062 235.371094 329.597656 278.597656 299.164062 309.371094 Z M 187.503906 10.953125 C 94.675781 10.953125 19.425781 89.992188 19.425781 187.496094 C 19.425781 238.492188 40.011719 284.4375 72.933594 316.667969 C 102.953125 346.054688 143.226562 364.035156 187.503906 364.035156 C 231.703125 364.035156 271.921875 346.113281 301.925781 316.8125 C 334.933594 284.582031 355.585938 238.570312 355.585938 187.496094 C 355.585938 89.992188 280.332031 10.953125 187.503906 10.953125 " fill-opacity="1" fill-rule="nonzero"/></g><path stroke-linecap="butt" transform="matrix(0.749994, -0.00299997, 0.00299997, 0.749994, -0.00599539, 373.499975)" fill="none" stroke-linejoin="miter" d="M -0.00000626984 2.000049 L 500.004027 2.000048 " stroke="#282c34" stroke-width="4" stroke-opacity="1" stroke-miterlimit="4"/></svg>